<?xml version="1.0" encoding="UTF-8" standalone="no"?>
<!-- Created with Inkscape (http://www.inkscape.org/) -->

<svg
   width="48"
   height="48"
   viewBox="0 0 48 48"
   version="1.1"
   id="svg1"
   sodipodi:docname="forgsync-logo.svg"
   inkscape:version="1.3.2 (091e20e, 2023-11-25, custom)"
   inkscape:export-filename="forgsync-logo-256.png"
   inkscape:export-xdpi="512"
   inkscape:export-ydpi="512"
   xmlns:inkscape="http://www.inkscape.org/namespaces/inkscape"
   xmlns:sodipodi="http://sodipodi.sourceforge.net/DTD/sodipodi-0.dtd"
   xmlns="http://www.w3.org/2000/svg"
   xmlns:svg="http://www.w3.org/2000/svg">
  <sodipodi:namedview
     id="namedview1"
     pagecolor="#ffffff"
     bordercolor="#666666"
     borderopacity="1.0"
     inkscape:showpageshadow="2"
     inkscape:pageopacity="0.0"
     inkscape:pagecheckerboard="0"
     inkscape:deskcolor="#d1d1d1"
     inkscape:document-units="px"
     inkscape:zoom="11.313709"
     inkscape:cx="11.048543"
     inkscape:cy="21.610951"
     inkscape:window-width="2560"
     inkscape:window-height="1369"
     inkscape:window-x="-8"
     inkscape:window-y="-8"
     inkscape:window-maximized="1"
     inkscape:current-layer="layer1" />
  <defs
     id="defs1">
    <pattern
       id="EMFhbasepattern"
       patternUnits="userSpaceOnUse"
       width="6"
       height="6"
       x="0"
       y="0" />
  </defs>
  <g
     inkscape:label="Layer 1"
     inkscape:groupmode="layer"
     id="layer1">
    <g
       id="g78"
       transform="translate(-54.859104,-6.540718)">
      <path
         style="fill:#ffffff;fill-opacity:1;stroke:#ffffff;stroke-width:2;stroke-dasharray:none;stroke-opacity:1"
         d="m 82.767719,51.407233 c -0.677333,-0.225437 -0.962586,-0.98395 -1.043033,-1.579023 l -2.277161,-0.161253 c -4.058698,0.496611 -8.2569,-0.442419 -11.761923,-2.529162 -4.004317,-2.45251 -7.134973,-6.469148 -8.091587,-11.111124 -1.223481,-5.089304 0.219356,-10.646313 3.515804,-14.675192 1.821123,-2.229208 4.177162,-3.994581 6.82754,-5.117715 1.657807,-0.709015 3.452119,-1.083189 5.222848,-1.307318 0.372612,-0.551317 0.371068,-1.383429 0.806646,-1.959511 1.280045,-2.442609 4.200976,-3.8565255 6.909393,-3.3184564 1.361361,0.2035018 2.564276,0.9577404 3.570395,1.8704964 2.25208,-2.165763 6.111181,-2.4394046 8.616243,-0.535611 2.23956,1.539538 3.10585,4.633852 2.164852,7.160119 -0.1563,0.670051 0.699915,1.17076 0.895357,1.819877 0.673763,1.498318 0.558659,3.278446 -0.329017,4.665935 -0.513803,0.747014 -1.211334,1.447327 -1.979248,1.943175 -1.035996,0.694154 -2.284391,0.894526 -3.457077,1.170977 0.537385,1.842543 0.69371,3.756833 0.548235,5.666087 -0.0061,1.160029 -0.413697,2.266273 -0.630134,3.394898 1.101055,0.904679 2.373371,1.634519 3.32513,2.697558 0.360653,0.896368 -0.465932,1.736711 -1.346453,1.764462 -0.391308,0.26848 -1.730436,0.955064 -0.506203,0.813725 0.688022,0.03554 1.374924,0.0674 1.887013,-0.472238 0.947503,-0.26475 2.007635,0.272198 2.237074,1.247391 0.302631,1.184684 -1.014989,2.400444 -2.17104,1.908197 -0.556682,-0.368728 -1.09259,-0.702504 -1.814514,-0.552576 -0.91155,-0.04541 -1.933162,0.0993 -2.601309,-0.651932 -0.633091,-0.465287 -1.266182,-0.930572 -1.899273,-1.395859 -0.969474,1.322098 -2.200271,2.440804 -3.510018,3.421869 0.705681,0.240219 1.074327,-0.540879 1.776446,-0.546645 1.413909,-0.14917 2.444535,1.774607 1.401596,2.810616 -0.664727,0.821301 -1.968139,0.719818 -2.633681,-0.06555 -1.200429,0.006 -2.534886,-0.125174 -3.652449,-0.0344 0.355605,0.673143 1.259981,0.285799 1.739285,0.830621 0.994898,0.782806 0.591801,2.599969 -0.658208,2.869806 -0.331009,0.114404 -0.765603,0.126082 -1.081529,-0.04225 z"
         id="path6-5"
         sodipodi:nodetypes="cccccccccccccccccccccccccccccccccccc" />
      <path
         style="fill:#000000;stroke-width:0.278709"
         d="m 82.767719,51.407233 c -0.677333,-0.225437 -0.962586,-0.98395 -1.043033,-1.579023 -1.903013,-1.516735 -3.880104,-2.95348 -5.813577,-4.432901 -0.795295,0.46614 -1.601392,0.914075 -2.387327,1.395984 1.013025,0.329392 2.144788,0.243232 3.138498,0.562657 0.903537,0.783697 2.001652,1.468094 2.785245,2.313007 -4.058698,0.496611 -8.2569,-0.442419 -11.761923,-2.529162 -4.004317,-2.45251 -7.134973,-6.469148 -8.091587,-11.111124 -1.223481,-5.089304 0.219356,-10.646313 3.515804,-14.675192 1.821123,-2.229208 4.177162,-3.994581 6.82754,-5.117715 1.657807,-0.709015 3.452119,-1.083189 5.222848,-1.307318 0.372612,-0.551317 0.371068,-1.383429 0.806646,-1.959511 1.280045,-2.442609 4.200976,-3.8565255 6.909393,-3.3184564 1.361361,0.2035018 2.564276,0.9577404 3.570395,1.8704964 2.25208,-2.165763 6.111181,-2.4394046 8.616243,-0.535611 2.23956,1.539538 3.10585,4.633852 2.164852,7.160119 -0.1563,0.670051 0.699915,1.17076 0.895357,1.819877 0.673763,1.498318 0.558659,3.278446 -0.329017,4.665935 -0.513803,0.747014 -1.211334,1.447327 -1.979248,1.943175 -1.035996,0.694154 -2.284391,0.894526 -3.457077,1.170977 0.537385,1.842543 0.69371,3.756833 0.548235,5.666087 -0.0061,1.160029 -0.413697,2.266273 -0.630134,3.394898 1.101055,0.904679 2.373371,1.634519 3.32513,2.697558 0.360653,0.896368 -0.465932,1.736711 -1.346453,1.764462 -0.391308,0.26848 -1.730436,0.955064 -0.506203,0.813725 0.688022,0.03554 1.374924,0.0674 1.887013,-0.472238 0.947503,-0.26475 2.007635,0.272198 2.237074,1.247391 0.302631,1.184684 -1.014989,2.400444 -2.17104,1.908197 -0.556682,-0.368728 -1.09259,-0.702504 -1.814514,-0.552576 -0.91155,-0.04541 -1.933162,0.0993 -2.601309,-0.651932 -0.633091,-0.465287 -1.266182,-0.930572 -1.899273,-1.395859 -0.969474,1.322098 -2.200271,2.440804 -3.510018,3.421869 0.705681,0.240219 1.074327,-0.540879 1.776446,-0.546645 1.413909,-0.14917 2.444535,1.774607 1.401596,2.810616 -0.664727,0.821301 -1.968139,0.719818 -2.633681,-0.06555 -1.200429,0.006 -2.534886,-0.125174 -3.652449,-0.0344 0.355605,0.673143 1.259981,0.285799 1.739285,0.830621 0.994898,0.782806 0.591801,2.599969 -0.658208,2.869806 -0.331009,0.114404 -0.765603,0.126082 -1.081529,-0.04225 z m -1.745216,-5.968337 c 4.911156,-1.906427 8.764207,-6.577163 9.280212,-11.877101 0.211139,-1.996868 -0.0075,-4.046886 -0.679234,-5.943809 -1.00628,0 -2.012563,0 -3.018843,0 0.411144,1.561224 0.861541,3.157577 0.737869,4.799047 -0.0661,3.449734 -1.936511,6.756153 -4.74366,8.737944 -1.353658,0.951516 -2.722308,1.881382 -4.110764,2.78158 0.291102,0.399139 0.994548,0.782708 1.429507,1.197468 0.410138,0.309303 0.574886,0.684988 1.104913,0.304871 z M 70.693316,45.043498 c 0.786325,-0.504178 1.698151,-0.934256 2.408322,-1.480575 -1.208322,-0.457907 -2.537769,-1.050577 -3.623726,-1.871728 -3.068503,-2.220248 -4.867959,-6.065934 -4.677002,-9.838145 0.165292,-4.46771 3.034847,-8.69292 7.117752,-10.508455 1.359468,-0.625469 2.846739,-1.068251 4.347104,-1.105277 0.05468,-0.598669 -0.637419,-1.169257 -0.732997,-1.821263 -0.08424,-0.866649 -0.398262,-1.083312 -1.24849,-0.836688 -4.262371,0.646514 -8.067707,3.356523 -10.319876,7.000516 -2.010726,3.269212 -2.724754,7.331036 -1.799648,11.069992 0.842418,3.730872 3.276813,7.015477 6.502645,9.048394 0.565192,0.256027 1.219445,1.046703 1.821547,0.464799 0.06812,-0.04052 0.136247,-0.08105 0.204369,-0.12157 z m 7.868552,-4.686648 c 0.930671,-0.726211 2.037077,-1.270046 2.896168,-2.055606 -1.365098,0.498983 -2.84071,0.488013 -4.263131,0.360267 -2.419222,-0.396067 -4.487521,-2.302706 -5.019393,-4.702375 -0.226374,-0.888083 -0.157137,-1.862762 -0.06721,-2.761503 0.618188,-2.861331 3.129909,-5.006913 5.937874,-5.591808 2.62286,-0.613044 5.339945,-0.253087 8.008408,-0.350523 2.45347,-0.108975 4.986665,0.307306 7.366764,-0.448816 0.902046,-0.449858 2.222827,-1.032353 2.037491,-2.252182 -0.45023,-0.637194 -1.36479,-0.2014 -2.037421,-0.324656 -4.365979,0.0429 -8.738145,-0.01695 -13.100239,0.09046 -2.594172,0.215322 -5.250189,0.765049 -7.37149,2.362712 -1.302662,1.064187 -2.510282,2.320644 -3.144284,3.91185 -0.824275,1.670823 -0.960329,3.59713 -0.690307,5.413783 0.579673,3.793671 3.755176,7.039162 7.565001,7.606039 0.646778,-0.390499 1.264836,-0.822099 1.88177,-1.257645 z m 12.74914,-0.228231 c 0.849717,-0.27146 1.065416,-0.756711 0.116787,-1.073139 -0.163393,0.211854 -1.092777,1.547456 -0.260278,1.147654 l 0.102272,-0.05311 z M 79.365916,36.137585 c 1.938696,-0.40459 3.323149,-2.402782 3.104476,-4.364332 -0.08207,-1.648745 -1.261837,-3.190331 -2.837436,-3.666301 -0.951252,-0.226417 -2.091621,0.152387 -2.366537,1.171456 -0.220116,0.894314 0.612372,1.668025 1.480018,1.676303 0.913762,0.339096 1.015369,1.651641 0.178179,2.142563 -0.776478,0.628686 -1.811482,0.07366 -2.253077,-0.690712 -0.594793,-0.702696 -1.834944,-0.501739 -2.110426,0.401814 -0.438109,1.230796 0.681054,2.363443 1.692972,2.918399 0.91281,0.54932 2.088074,0.647947 3.111831,0.41081 z m 3.269046,-16.127859 c 1.695974,-0.360807 3.127104,-2.012423 3.009612,-3.788838 0.126584,-2.259808 -2.130744,-4.213727 -4.345505,-3.891964 -1.888142,0.140046 -3.454496,1.840388 -3.536074,3.714697 -0.08074,1.245428 0.544621,2.458755 1.515239,3.227054 0.899094,0.793388 2.208462,0.966594 3.356728,0.739051 z m -1.316071,-2.271939 c -1.19818,-0.264682 -1.689319,-2.042794 -0.608646,-2.755263 0.670494,-0.717337 1.951512,-0.453277 2.416137,0.386243 0.781573,1.220406 -0.464218,2.711611 -1.807491,2.36902 z M 94.937373,15.99364 c 0.135603,-2.18862 -2.154797,-3.960102 -4.24614,-3.608743 -1.01347,0.0662 -1.93844,0.597169 -2.692697,1.253283 2.310863,0.959649 4.667389,1.847505 6.83334,3.113483 0.148672,-0.231702 0.09395,-0.497946 0.105497,-0.758023 z"
         id="path6" />
    </g>
  </g>
</svg>
