<?xml version="1.0" encoding="UTF-8" standalone="no"?>
<!-- Created with Inkscape (http://www.inkscape.org/) -->

<svg
   width="48"
   height="48"
   viewBox="0 0 48 48"
   version="1.1"
   id="svg1"
   sodipodi:docname="forgsync-logo2.svg"
   inkscape:version="1.3.2 (091e20e, 2023-11-25, custom)"
   inkscape:export-filename="forgsync-logo-256.png"
   inkscape:export-xdpi="512"
   inkscape:export-ydpi="512"
   xml:space="preserve"
   xmlns:inkscape="http://www.inkscape.org/namespaces/inkscape"
   xmlns:sodipodi="http://sodipodi.sourceforge.net/DTD/sodipodi-0.dtd"
   xmlns="http://www.w3.org/2000/svg"
   xmlns:svg="http://www.w3.org/2000/svg"><sodipodi:namedview
     id="namedview1"
     pagecolor="#b3b3b3"
     bordercolor="#666666"
     borderopacity="1.0"
     inkscape:showpageshadow="2"
     inkscape:pageopacity="0.0"
     inkscape:pagecheckerboard="0"
     inkscape:deskcolor="#d1d1d1"
     inkscape:document-units="px"
     inkscape:zoom="11.313709"
     inkscape:cx="18.207999"
     inkscape:cy="7.8223684"
     inkscape:window-width="2560"
     inkscape:window-height="1369"
     inkscape:window-x="-8"
     inkscape:window-y="-8"
     inkscape:window-maximized="1"
     inkscape:current-layer="layer1"
     showgrid="true"><inkscape:grid
       id="grid4"
       units="px"
       originx="0"
       originy="0"
       spacingx="1"
       spacingy="1"
       empcolor="#0099e5"
       empopacity="0.30196078"
       color="#0099e5"
       opacity="0.14901961"
       empspacing="4"
       dotted="false"
       gridanglex="30"
       gridanglez="30"
       visible="true" /></sodipodi:namedview><defs
     id="defs1"><pattern
       id="EMFhbasepattern"
       patternUnits="userSpaceOnUse"
       width="6"
       height="6"
       x="0"
       y="0" /></defs><g
     inkscape:label="Layer 1"
     inkscape:groupmode="layer"
     id="layer1"><path
       id="path9-8"
       style="fill:#ffffff;fill-opacity:1;stroke:none;stroke-width:1px;stroke-linecap:butt;stroke-linejoin:miter;stroke-opacity:1"
       d="M 25.226562,0.93164065 C 22.08937,1.0474472 19.117327,3.3288548 18.349609,6.3945312 13.325043,6.9799663 8.6197918,9.735874 5.6422317,13.822402 2.2582193,18.377323 1.1217081,24.552027 2.8683849,29.974976 c 1.916131,6.318103 7.5248641,11.227021 13.9398921,12.613284 3.138377,0.67935 6.53969,0.788589 9.539379,-0.510135 0.660157,0.660156 1.320313,1.320313 1.980469,1.980469 -0.272731,1.647799 1.089897,3.306884 2.761719,3.351562 1.56274,0.112309 3.035186,-1.213329 3.082031,-2.785156 0.04862,-0.520076 -0.09929,-1.077413 -0.328125,-1.523438 1.443328,0.541745 3.195384,-0.272724 3.71875,-1.724609 0.415292,-1.052634 0.154647,-2.33272 -0.660156,-3.130859 1.464796,0.834869 3.506381,0.02014 4.064453,-1.558594 0.304588,-0.767121 0.239884,-1.723715 -0.132813,-2.419922 1.443466,0.537726 3.191708,-0.2759 3.714844,-1.726562 0.698215,-1.636801 -0.465191,-3.699521 -2.233235,-3.94321 -1.108638,-0.201129 -2.313552,0.305824 -2.930827,1.245944 -0.832032,0 -1.664063,0 -2.496094,0 0.479416,-1.763973 0.90394,-3.560753 0.84218,-5.402678 0.0041,-1.228088 -0.124156,-2.45712 -0.391008,-3.655916 2.40999,-0.428277 4.649198,-2.035784 5.59375,-4.324218 0.754982,-1.922489 0.424076,-4.254686 -0.931641,-5.828126 C 43.092706,7.5488336 41.764297,3.8096488 38.904297,2.1816406 36.285637,0.58593235 32.721365,0.78493755 30.275391,2.6230469 28.862744,1.466017 27.052065,0.85490275 25.226562,0.93164065 Z M 35.3125,35.222656 c -0.147714,0.887758 0.234152,1.930812 0.832031,2.478516 -1.264039,-0.668199 -2.969128,-0.215665 -3.740234,0.976562 -0.713856,0.07705 -1.004184,-0.0029 -0.308594,-0.507812 1.020987,-1.056125 1.91996,-2.228497 2.681641,-3.484375 0.178385,0.179036 0.356771,0.358073 0.535156,0.537109 z" /><path
       style="fill:#ffffff;fill-opacity:1;stroke:none;stroke-width:1px;stroke-linecap:butt;stroke-linejoin:miter;stroke-opacity:1"
       d="m 5.4050142,25.303115 2.4748736,9.545941 6.8059022,4.77297 10.518213,0.618719 7.513009,-6.894291 1.590991,-14.495688 5.3033,-0.972272 1.944544,-3.093592 -2.032932,-4.242641 0.707107,-3.7123101 -3.447146,-3.4471454 -4.331029,0.3535534 -2.563262,2.0329319 -2.740038,-2.563262 -4.065864,0.3535534 -2.386485,3.0052037 -1.767767,6.5407371 -7.071068,1.414214 -4.6845819,4.861359 z"
       id="path9" /><g
       id="g9"
       transform="translate(-1.3124999,-1.125)"><path
         id="path6"
         style="fill:#000000;stroke-width:0.278709"
         d="M 26.996094,2.9960938 C 24.605083,2.939657 22.22746,4.2885005 21.107422,6.4257812 20.671844,7.0018627 20.673393,7.8334492 20.300781,8.3847656 18.530054,8.6088944 16.73593,8.9843451 15.078125,9.6933594 12.42775,10.816492 10.071121,12.581341 8.25,14.810547 4.9535553,18.839422 3.5108952,24.397029 4.734375,29.486328 c 0.956613,4.641971 4.0874839,8.658821 8.091797,11.111328 3.505019,2.086741 7.703025,3.025908 11.761719,2.529297 6.664305,-1.211596 11.405121,-7.134301 12.828125,-12.863281 0.216436,-1.128624 0.624759,-2.234504 0.630859,-3.394531 0.145475,-1.909252 -0.01144,-3.823475 -0.548828,-5.666016 1.172685,-0.276451 2.421036,-0.477722 3.457031,-1.171875 0.767913,-0.495848 1.466666,-1.196346 1.980469,-1.943359 0.887675,-1.387488 1.001887,-3.167699 0.328125,-4.666016 C 43.06823,12.772759 42.212841,12.273566 42.369141,11.603516 43.310138,9.0772512 42.442683,5.9828958 40.203125,4.4433594 37.698066,2.5395677 33.839968,2.8127548 31.587891,4.9785156 30.581773,4.0657605 29.378938,3.3109235 28.017578,3.1074219 27.679026,3.0401633 27.337667,3.0041561 26.996094,2.9960938 Z m -0.140625,2.7578124 c 2.072438,-0.042185 4.04836,1.8072134 3.929687,3.9257813 0.117492,1.7764135 -1.313793,3.4282555 -3.009765,3.7890625 -1.148265,0.227543 -2.456376,0.05511 -3.355469,-0.738281 -0.970617,-0.768298 -1.596365,-1.983089 -1.515625,-3.2285159 0.08158,-1.8743071 1.647016,-3.5728447 3.535156,-3.7128906 0.138423,-0.02011 0.277853,-0.032344 0.416016,-0.035156 z m 9.371093,0.048828 c 1.974346,-0.086875 3.978691,1.5985614 3.851563,3.6503906 -0.01155,0.2600767 0.0432,0.5261107 -0.105469,0.757813 -2.165949,-1.2659772 -4.523123,-2.1536337 -6.833984,-3.1132818 0.754256,-0.6561133 1.67989,-1.1877063 2.693359,-1.2539062 0.130709,-0.02196 0.262908,-0.035224 0.394531,-0.041016 z m -9.439453,2.2246094 c -0.347897,0.01439 -0.684112,0.1450613 -0.935547,0.4140624 -1.080671,0.7124683 -0.590756,2.4911778 0.607422,2.7558598 1.343272,0.34259 2.590166,-1.148736 1.808594,-2.369141 -0.29039,-0.5246995 -0.90064,-0.8247651 -1.480469,-0.8007812 z m 13.033203,7.6367182 c 0.315585,0.0047 0.601853,0.07865 0.798829,0.357422 0.185334,1.219827 -1.137019,1.802096 -2.039063,2.251954 -0.580971,0.184565 -1.169795,0.29764 -1.765625,0.367187 v 0.0293 c 0,0 -0.285076,-3e-6 -0.294922,0 -1.752251,0.162248 -3.548759,-0.02526 -5.304687,0.05273 l -1.732422,-0.05078 c -3.945662,0.0011 -7.577193,0.002 -8.373047,0.002 -4.892114,0 -8.869141,3.975075 -8.869141,8.867188 h 4.435547 l -7.3964841,7.255859 -0.00586,-4.630859 0.011719,-2.625 c 1e-7,-6.532673 5.2915478,-11.822266 11.8242188,-11.822266 2.071556,0 11.883999,0.06624 14.193359,0.08203 1.051624,-0.02623 2.137277,-0.05941 3.277344,-0.105469 0.378355,0.06933 0.834484,-0.03727 1.240234,-0.03125 z m -6.894531,4.564454 0.0078,7.3125 c 0,6.532671 -5.291548,11.824218 -11.824219,11.824218 -2.320429,0 -4.47896,-0.679205 -6.296875,-1.832031 L 16.970703,35.375 c 1.226723,0.66509 2.645911,1.035156 4.138672,1.035156 4.892113,0 8.867187,-3.977027 8.867187,-8.86914 h -4.433593 l 5.912109,-5.910157 z" /><circle
         style="font-variation-settings:normal;vector-effect:none;fill:#000000;fill-opacity:1;stroke:none;stroke-width:1.10518;stroke-linecap:butt;stroke-linejoin:round;stroke-miterlimit:4;stroke-dasharray:none;stroke-dashoffset:0;stroke-opacity:1;-inkscape-stroke:none;stop-color:#000000"
         id="path3-2-8-4-68"
         cx="36.130234"
         cy="41.454887"
         r="2" /><circle
         style="fill:#000000;fill-opacity:1;stroke:none;stroke-width:1.10518;stroke-linejoin:round;stroke-dasharray:none"
         id="path3-2-8-4-6-0"
         cx="32.549335"
         cy="45.600353"
         r="2" /><path
         style="fill:none;stroke:#000000;stroke-width:1.5;stroke-linecap:butt;stroke-linejoin:miter;stroke-dasharray:none;stroke-opacity:1"
         d="M 32.505845,45.652579 27.313029,40.459764"
         id="path5"
         sodipodi:nodetypes="cc" /><path
         style="fill:none;stroke:#000000;stroke-width:1.5;stroke-linecap:butt;stroke-linejoin:miter;stroke-dasharray:none;stroke-opacity:1"
         d="m 28.585968,41.498328 h 7.785836"
         id="path7"
         sodipodi:nodetypes="cc" /><circle
         style="font-variation-settings:normal;vector-effect:none;fill:#000000;fill-opacity:1;stroke:none;stroke-width:1.10518;stroke-linecap:butt;stroke-linejoin:round;stroke-miterlimit:4;stroke-dasharray:none;stroke-dashoffset:0;stroke-opacity:1;-inkscape-stroke:none;stop-color:#000000"
         id="path3-2-8-4-68-7"
         cx="43.115303"
         cy="32.619572"
         r="2" /><circle
         style="fill:#000000;fill-opacity:1;stroke:none;stroke-width:1.10518;stroke-linejoin:round;stroke-dasharray:none"
         id="path3-2-8-4-6-0-1"
         cx="39.534405"
         cy="36.765038"
         r="2" /><path
         style="fill:none;stroke:#000000;stroke-width:1.5;stroke-linecap:butt;stroke-linejoin:miter;stroke-dasharray:none;stroke-opacity:1"
         d="M 39.490913,36.817265 34.298097,31.62445"
         id="path5-0"
         sodipodi:nodetypes="cc" /><path
         style="fill:none;stroke:#000000;stroke-width:1.5;stroke-linecap:butt;stroke-linejoin:miter;stroke-dasharray:none;stroke-opacity:1"
         d="m 35.571036,32.663014 h 7.785836"
         id="path7-9"
         sodipodi:nodetypes="cc" /></g></g></svg>
